<!DOCTYPE svg PUBLIC "-//W3C//DTD SVG 1.1//EN" "http://www.w3.org/Graphics/SVG/1.1/DTD/svg11.dtd">
<!-- Uploaded to: SVG Repo, www.svgrepo.com, Transformed by: SVG Repo Mixer Tools -->
<svg fill="#ffffff" version="1.1" id="Capa_1" xmlns="http://www.w3.org/2000/svg" xmlns:xlink="http://www.w3.org/1999/xlink" width="64px" height="64px" viewBox="0 0 45.29 45.29" xml:space="preserve" stroke="#ffffff">
<g id="SVGRepo_bgCarrier" stroke-width="0"/>
<g id="SVGRepo_tracerCarrier" stroke-linecap="round" stroke-linejoin="round"/>
<g id="SVGRepo_iconCarrier"> <g> <path d="M41.854,13.28H31.477V3.921c0-1.898-1.539-3.436-3.437-3.436H17.203c-1.898,0-3.437,1.538-3.437,3.436v9.359H3.437 C1.539,13.28,0,14.819,0,16.717v10.836c0,1.898,1.539,3.437,3.437,3.437h10.33v10.378c0,1.897,1.539,3.437,3.437,3.437h10.837 c1.898,0,3.436-1.539,3.436-3.437V30.989h10.377c1.897,0,3.437-1.539,3.437-3.437V16.716C45.29,14.818,43.751,13.28,41.854,13.28z M25.751,27.171c-0.19,0.082-0.37,0.158-0.539,0.224c1.056,0.374,2.084,0.888,2.015,1.134c-0.086,0.305-1.815,0.081-3.063-0.27 c-0.404-0.114-0.701-0.228-0.923-0.338v2.045c0,0.307-0.247,0.556-0.554,0.556s-0.553-0.249-0.553-0.556v-2.047 c-0.222,0.111-0.534,0.225-0.938,0.338c-1.248,0.352-2.988,0.576-3.074,0.271c-0.069-0.246,0.958-0.76,2.013-1.133 c-0.169-0.065-0.349-0.142-0.54-0.224c-2.045-0.897-4.602-2.5-4.384-3c0.195-0.443,2.517,0.136,4.467,0.899 c-0.079-0.127-0.16-0.261-0.243-0.399c-1.554-2.625-3.111-6.437-2.471-6.815c0.548-0.324,2.527,1.971,4.061,4.285 c0.059-3.674,0.774-8.256,1.648-8.256s1.59,4.583,1.648,8.256c1.533-2.314,3.513-4.609,4.06-4.285 c0.64,0.379-0.917,4.191-2.471,6.815c-0.083,0.14-0.164,0.272-0.243,0.399c1.951-0.764,4.273-1.343,4.468-0.899 C30.354,24.671,27.798,26.273,25.751,27.171z"/> </g> </g>
</svg>